<svg xmlns="http://www.w3.org/2000/svg" version="1.1" xmlns:xlink="http://www.w3.org/1999/xlink" xmlns:svgjs="http://svgjs.dev/svgjs" width="512" height="512"><svg width="512" height="512" viewBox="0 0 512 512" fill="none" xmlns="http://www.w3.org/2000/svg">
<path d="M512 512H0V0H512V512Z" fill="#F08600"></path>
<path fill-rule="evenodd" clip-rule="evenodd" d="M258.318 275.459H298.902L297.48 283.548H256.896L258.209 275.459H258.318ZM266.741 220.253H307.216L304.371 236.651H263.788L266.741 220.253ZM237.206 121.539C234.69 121.429 232.174 121.539 229.658 121.757C224.845 122.195 220.032 123.069 215.328 124.49C209.531 126.13 203.842 128.754 198.92 132.361C194.435 135.532 190.497 139.576 187.434 144.168C183.496 149.961 180.871 156.739 179.777 163.626C179.558 165.047 179.339 166.469 179.12 167.89C179.12 168.108 179.12 168.218 179.12 168.436C178.683 171.606 178.245 174.667 177.808 177.838C177.042 182.648 176.386 187.567 175.62 192.377C174.854 197.515 174.089 202.653 173.213 207.791C172.666 211.07 172.229 214.35 171.682 217.629L170.916 222.767C170.916 222.767 170.916 222.767 170.916 222.877C170.916 222.877 170.916 222.877 170.916 222.986C170.479 225.282 170.369 227.687 170.26 229.982C170.041 234.355 170.26 238.837 171.026 243.21C171.791 248.457 173.323 253.595 175.948 258.296C178.136 262.34 181.089 265.839 184.809 268.572C189.403 272.07 195.091 274.256 200.78 275.021C201.983 275.24 203.186 275.349 204.389 275.459H225.83L224.517 283.548H223.095H194.654L190.934 305.849H220.907L216.313 336.021H248.692L253.396 305.849H293.979L289.494 336.021H321.874L331.281 275.349L340.47 275.021C341.455 274.912 342.33 274.803 343.314 274.803C345.064 274.803 346.815 275.021 348.455 275.677C350.424 276.333 352.284 277.536 353.706 279.175C355.128 280.815 356.003 282.783 356.441 284.86C357.207 288.139 357.097 291.528 356.66 294.699C356.66 295.464 356.441 296.229 356.331 296.885C356.331 297.322 356.222 297.76 356.113 298.197C356.003 298.962 355.785 299.837 355.675 300.711C355.347 302.569 355.128 304.537 354.8 306.396C354.472 308.801 354.144 311.206 353.816 313.611C353.487 316.234 353.05 318.858 352.612 321.591C352.175 324.105 351.737 326.729 351.19 329.243C350.424 333.288 349.44 337.333 348.455 341.377C348.346 341.815 348.237 342.252 348.018 342.689C347.69 343.564 347.033 344.329 346.377 344.985C345.283 346.078 343.97 346.843 342.548 347.39C340.908 348.155 339.157 348.592 337.298 348.92C334.563 349.467 331.828 349.576 329.093 349.576C328.547 349.576 327.89 349.576 327.343 349.576L152.648 350.669L146.304 388.384L337.516 387.947C339.157 387.947 340.798 387.947 342.439 387.838C345.721 387.619 348.893 387.072 352.065 386.307C356.113 385.323 359.941 383.793 363.551 381.716C366.833 379.857 369.786 377.562 372.193 374.829C375.803 370.893 378.1 365.865 379.85 360.836C382.585 353.293 384.007 345.422 385.429 337.661C386.742 330.992 388.054 324.214 389.148 317.546C390.133 311.752 391.117 305.849 391.883 299.946C392.43 296.557 392.868 293.168 393.305 289.779C393.524 288.14 393.743 286.5 393.961 284.751C393.961 284.751 393.961 284.751 393.961 284.641C394.29 282.674 394.399 280.706 394.399 278.738C394.399 274.912 394.18 271.195 393.524 267.369C392.758 262.778 391.336 258.186 388.93 254.142C386.961 250.534 384.335 247.255 381.054 244.631C377.006 241.242 372.193 238.837 367.052 237.635C365.958 237.307 364.973 237.088 363.879 236.869L358.629 236.432H336.86L344.08 190.518H238.738H223.095L219.595 212.819H235.237L231.518 236.432H219.485C218.938 236.432 218.391 236.104 217.844 235.885C216.75 235.448 215.766 234.792 214.891 234.027C213.578 232.934 212.594 231.513 211.937 229.982C211.172 228.343 210.734 226.484 210.406 224.626C210.078 221.893 210.078 219.16 210.406 216.427C210.406 215.88 210.515 215.224 210.625 214.678C210.625 214.131 210.843 213.475 210.953 212.929C211.172 211.726 211.39 210.524 211.5 209.321C211.937 206.479 212.375 203.637 212.922 200.794C213.469 197.406 214.016 194.017 214.563 190.628C215 187.895 215.438 185.271 215.875 182.538C216.094 181.117 216.313 179.696 216.532 178.166C216.641 177.51 216.75 176.854 216.86 176.089C216.86 175.433 217.079 174.886 217.297 174.23C217.626 173.028 218.172 171.825 218.829 170.841C219.704 169.311 220.907 167.999 222.329 167.015C223.751 165.922 225.283 165.047 227.033 164.391C229.33 163.517 231.846 162.97 234.253 162.752C234.8 162.752 235.347 162.752 235.784 162.752C236.441 162.752 237.097 162.752 237.753 162.752C239.832 162.752 241.801 162.752 243.879 162.642C252.411 162.533 260.834 162.424 269.367 162.424C285.338 162.424 301.199 162.314 317.17 162.314C333.907 162.314 350.534 162.314 367.27 162.314C377.881 162.314 388.492 162.314 399.103 162.314C404.682 162.314 410.151 162.314 415.73 162.314H416.168L423.497 121.757H236.878C236.878 121.757 236.878 121.648 236.769 121.539H237.206ZM159.977 46.328C158.118 46.328 156.258 46.4373 154.398 46.7652C150.679 47.2025 146.96 48.077 143.459 49.2795C138.756 50.81 134.271 52.9964 130.223 55.8386C126.395 58.4623 122.894 61.6325 120.05 65.3493C116.331 69.9407 113.377 75.1879 111.518 80.7631C111.08 81.8563 110.752 83.0588 110.424 84.152L64.8084 375.703C64.8084 375.703 64.8084 375.813 64.8084 375.922C64.0426 380.185 63.6051 384.449 63.3863 388.821C62.8393 396.802 62.8394 404.782 63.6051 412.871C64.3708 421.945 66.2304 431.128 70.1684 439.436C73.122 446.104 77.2788 452.226 83.0764 456.708C89.7492 462.283 98.5003 465.344 107.142 465.781C109.002 465.891 110.861 466 112.721 466C114.471 466 116.331 466 118.081 466C122.457 466 126.832 466 131.098 466C213.797 466 296.495 466 379.194 466H379.741L387.945 417.572H133.943C132.739 417.572 131.427 417.572 130.223 417.353C127.926 417.025 125.629 416.588 123.332 415.823C120.597 414.948 118.081 413.637 116.003 411.669C114.143 410.029 112.502 408.061 111.518 405.766C110.096 402.814 109.658 399.425 109.767 396.146C109.767 395.49 109.767 394.725 109.877 394.069C109.877 393.194 110.096 392.32 110.205 391.336C110.533 388.384 110.971 385.542 111.408 382.59C123.769 295.901 138.209 209.54 151.992 123.069C151.992 122.851 151.992 122.632 151.992 122.413C152.101 120.992 152.429 119.68 152.758 118.369C153.414 115.745 154.289 113.231 155.492 110.826C156.914 107.765 158.883 104.813 161.29 102.408C163.478 100.112 165.994 98.254 168.838 96.9422C172.448 95.1931 176.386 94.2093 180.324 94.1C181.089 94.1 181.965 94.1 182.73 94.1H185.793C270.461 94.1 355.128 94.0999 439.796 94.2093H440.452L448.328 46L160.196 46.6559L159.977 46.328Z" fill="white"></path>
</svg><style>@media (prefers-color-scheme: light) { :root { filter: none; } }
@media (prefers-color-scheme: dark) { :root { filter: none; } }
</style></svg>