<svg width="18" height="20" viewBox="0 0 18 20" fill="none" xmlns="http://www.w3.org/2000/svg">
  <path
    d="M8.57227 0C3.84969 0 1e-05 3.85246 0 8.57812C0.00053 8.58712 0.000999855 8.59634 0.00199986 8.60544C0.1071 12.4184 2.17292 14.9768 4.6895 16.7695C6.96394 18.3897 7.77739 19.5742 7.77739 19.5742C8.21168 20.1942 9.15062 20.1257 9.49029 19.4492C10.1675 18.4385 11.4452 17.3898 12.3887 16.7636C15.0859 14.9924 17.1448 12.39 17.1446 8.57809C17.1446 3.85242 13.2948 0 8.57227 0ZM8.57227 2C12.2129 2 15.1445 4.93227 15.1445 8.57812C15.1447 11.7112 13.6655 13.5324 11.291 15.0918C9.9565 15.9682 9.08277 16.7903 8.5293 17.416C7.94779 16.818 7.07364 16.0126 5.84961 15.1406C3.61696 13.5501 2.09382 11.7047 2.00196 8.56641C2.00896 4.9263 4.93577 2 8.57227 2Z"
    fill="#F18700" />
  <path
    d="M7.5 17.5L2.5 12.5L1 9.49997L1.5 5.99997L3 3.49997L4 1.99997L8 1.49997L12.5 1.99997L15.5 5.99997L16 10.5L13.5 14.5L9.5 18L7.5 17.5Z"
    fill="#F18700" />
</svg>